ffmpeg version N-122740-g0a629df0a8-20260213 Copyright (c) 2000-2026 the FFmpeg developers
  built with gcc 15.2.0 (crosstool-NG 1.28.0.1_403899e)
  configuration: --prefix=/ffbuild/prefix --pkg-config-flags=--static --pkg-config=pkg-config --cross-prefix=x86_64-w64-mingw32- --arch=x86_64 --target-os=mingw32 --enable-gpl --enable-version3 --disable-debug --disable-w32threads --enable-pthreads --enable-iconv --enable-zlib --enable-libxml2 --enable-libvmaf --enable-fontconfig --enable-libharfbuzz --enable-libfreetype --enable-libfribidi --enable-vulkan --enable-libshaderc --enable-libvorbis --disable-libxcb --disable-xlib --disable-libpulse --enable-opencl --enable-gmp --enable-lzma --enable-liblcevc-dec --enable-amf --enable-libaom --enable-libaribb24 --enable-avisynth --enable-chromaprint --enable-libdav1d --enable-libdavs2 --enable-libdvdread --enable-libdvdnav --disable-libfdk-aac --enable-ffnvcodec --enable-cuda-llvm --enable-frei0r --enable-libgme --enable-libkvazaar --enable-libaribcaption --enable-libass --enable-libbluray --enable-libjxl --enable-libmp3lame --enable-libopus --enable-libplacebo --enable-librist --enable-libssh --enable-libtheora --enable-libvpx --enable-libwebp --enable-libzmq --enable-lv2 --enable-libvpl --enable-openal --enable-liboapv --enable-libopencore-amrnb --enable-libopencore-amrwb --enable-libopenh264 --enable-libopenjpeg --enable-libopenmpt --enable-librav1e --enable-librubberband --enable-schannel --enable-sdl2 --enable-libsnappy --enable-libsoxr --enable-libsrt --enable-libsvtav1 --enable-libtwolame --enable-libuavs3d --disable-libdrm --enable-vaapi --enable-libvidstab --enable-libvvenc --enable-whisper --enable-libx264 --enable-libx265 --enable-libxavs2 --enable-libxvid --enable-libzimg --enable-libzvbi --extra-cflags=-DLIBTWOLAME_STATIC --extra-cxxflags= --extra-libs=-lgomp --extra-ldflags=-pthread --extra-ldexeflags= --cc=x86_64-w64-mingw32-gcc --cxx=x86_64-w64-mingw32-g++ --ar=x86_64-w64-mingw32-gcc-ar --ranlib=x86_64-w64-mingw32-gcc-ranlib --nm=x86_64-w64-mingw32-gcc-nm --extra-version=20260213
  libavutil      60. 25.100 / 60. 25.100
  libavcodec     62. 23.103 / 62. 23.103
  libavformat    62.  9.101 / 62.  9.101
  libavdevice    62.  2.100 / 62.  2.100
  libavfilter    11. 12.100 / 11. 12.100
  libswscale      9.  3.100 /  9.  3.100
  libswresample   6.  2.100 /  6.  2.100
Input #0, rawvideo, from 'fd:':
  Duration: N/A, start: 0.000000, bitrate: 2985984 kb/s
  Stream #0:0: Video: rawvideo (RGB[24] / 0x18424752), rgb24, 1920x1080, 2985984 kb/s, 60 tbr, 60 tbn
Stream mapping:
  Stream #0:0 -> #0:0 (rawvideo (native) -> h264 (libx264))
[libx264 @ 0000020ebc19f540] using cpu capabilities: MMX2 SSE2Fast SSSE3 SSE4.2 AVX FMA3 BMI2 AVX2
[libx264 @ 0000020ebc19f540] profile High, level 4.2, 4:2:0, 8-bit
[libx264 @ 0000020ebc19f540] 264 - core 165 - H.264/MPEG-4 AVC codec - Copyleft 2003-2025 - http://www.videolan.org/x264.html - options: cabac=1 ref=2 deblock=1:0:0 analyse=0x3:0x113 me=hex subme=6 psy=1 psy_rd=1.00:0.00 mixed_ref=1 me_range=16 chroma_me=1 trellis=1 8x8dct=1 cqm=0 deadzone=21,11 fast_pskip=1 chroma_qp_offset=-2 threads=18 lookahead_threads=3 sliced_threads=0 nr=0 decimate=1 interlaced=0 bluray_compat=0 constrained_intra=0 bframes=3 b_pyramid=2 b_adapt=1 b_bias=0 direct=1 weightb=1 open_gop=0 weightp=1 keyint=250 keyint_min=25 scenecut=40 intra_refresh=0 rc_lookahead=30 rc=crf mbtree=1 crf=18.0 qcomp=0.60 qpmin=0 qpmax=69 qpstep=4 ip_ratio=1.40 aq=1:1.00
Output #0, mp4, to 'C:\Projekte\YouTube\VSCode\RisingSeaLevel\sea_level_rise_sweden.mp4':
  Metadata:
    encoder         : Lavf62.9.101
  Stream #0:0: Video: h264 (avc1 / 0x31637661), yuv420p(tv, progressive), 1920x1080, q=2-31, 60 fps, 15360 tbn
    Metadata:
      encoder         : Lavc62.23.103 libx264
    Side data:
      CPB properties: bitrate max/min/avg: 0/0/0 buffer size: 0 vbv_delay: N/A
frame=    0 fps=0.0 q=0.0 size=       0KiB time=N/A bitrate=N/A speed=N/A elapsed=0:00:00.51    frame=    0 fps=0.0 q=0.0 size=       0KiB time=N/A bitrate=N/A speed=N/A elapsed=0:00:01.03    frame=    0 fps=0.0 q=0.0 size=       0KiB time=N/A bitrate=N/A speed=N/A elapsed=0:00:01.56    frame=    2 fps=1.0 q=26.0 size=       0KiB time=00:00:00.00 bitrate=N/A speed=   0x elapsed=0:00:02.07    frame=   14 fps=5.4 q=26.0 size=       0KiB time=00:00:00.20 bitrate=   1.9kbits/s speed=0.0769x elapsed=0:00:02.59    frame=   27 fps=8.7 q=26.0 size=       0KiB time=00:00:00.41 bitrate=   0.9kbits/s speed=0.134x elapsed=0:00:03.10    frame=   40 fps= 11 q=26.0 size=     256KiB time=00:00:00.63 bitrate=3311.9kbits/s speed=0.175x elapsed=0:00:03.61    frame=   52 fps= 13 q=26.0 size=     256KiB time=00:00:00.83 bitrate=2517.0kbits/s speed=0.201x elapsed=0:00:04.14    frame=   64 fps= 14 q=26.0 size=     256KiB time=00:00:01.03 bitrate=2029.9kbits/s speed=0.222x elapsed=0:00:04.65    frame=   89 fps= 17 q=26.0 size=     512KiB time=00:00:01.45 bitrate=2892.9kbits/s speed=0.281x elapsed=0:00:05.16    frame=  116 fps= 20 q=26.0 size=     512KiB time=00:00:01.90 bitrate=2207.7kbits/s speed=0.334x elapsed=0:00:05.69    frame=  131 fps= 21 q=26.0 size=     768KiB time=00:00:02.15 bitrate=2926.4kbits/s speed=0.347x elapsed=0:00:06.20    frame=  147 fps= 22 q=26.0 size=     768KiB time=00:00:02.41 bitrate=2603.5kbits/s speed=0.36x elapsed=0:00:06.71    frame=  166 fps= 23 q=26.0 size=     768KiB time=00:00:02.73 bitrate=2301.9kbits/s speed=0.378x elapsed=0:00:07.23    frame=  183 fps= 24 q=26.0 size=     768KiB time=00:00:03.01 bitrate=2085.7kbits/s speed=0.389x elapsed=0:00:07.74    frame=  200 fps= 24 q=26.0 size=     768KiB time=00:00:03.30 bitrate=1906.6kbits/s speed=0.399x elapsed=0:00:08.26    frame=  216 fps= 25 q=26.0 size=     768KiB time=00:00:03.56 bitrate=1764.1kbits/s speed=0.407x elapsed=0:00:08.77    frame=  233 fps= 25 q=26.0 size=     768KiB time=00:00:03.85 bitrate=1634.2kbits/s speed=0.414x elapsed=0:00:09.29    frame=  249 fps= 25 q=26.0 size=     768KiB time=00:00:04.11 bitrate=1528.4kbits/s speed=0.42x elapsed=0:00:09.80    frame=  265 fps= 26 q=26.0 size=    1024KiB time=00:00:04.38 bitrate=1913.8kbits/s speed=0.424x elapsed=0:00:10.33    frame=  281 fps= 26 q=26.0 size=    1024KiB time=00:00:04.65 bitrate=1804.1kbits/s speed=0.429x elapsed=0:00:10.84    frame=  297 fps= 26 q=26.0 size=    1024KiB time=00:00:04.91 bitrate=1706.2kbits/s speed=0.433x elapsed=0:00:11.35    frame=  312 fps= 26 q=26.0 size=    1024KiB time=00:00:05.16 bitrate=1623.7kbits/s speed=0.435x elapsed=0:00:11.86    frame=  326 fps= 26 q=26.0 size=    1024KiB time=00:00:05.40 bitrate=1553.5kbits/s speed=0.436x elapsed=0:00:12.39    frame=  342 fps= 27 q=26.0 size=    1024KiB time=00:00:05.66 bitrate=1480.4kbits/s speed=0.439x elapsed=0:00:12.90    frame=  358 fps= 27 q=26.0 size=    1024KiB time=00:00:05.93 bitrate=1413.9kbits/s speed=0.442x elapsed=0:00:13.41    frame=  374 fps= 27 q=26.0 size=    1024KiB time=00:00:06.20 bitrate=1353.1kbits/s speed=0.445x elapsed=0:00:13.94    frame=  389 fps= 27 q=26.0 size=    1024KiB time=00:00:06.45 bitrate=1300.6kbits/s speed=0.446x elapsed=0:00:14.44    frame=  403 fps= 27 q=26.0 size=    1024KiB time=00:00:06.68 bitrate=1255.2kbits/s speed=0.446x elapsed=0:00:14.97    frame=  416 fps= 27 q=26.0 size=    1024KiB time=00:00:06.90 bitrate=1215.8kbits/s speed=0.446x elapsed=0:00:15.48    frame=  430 fps= 27 q=26.0 size=    1024KiB time=00:00:07.13 bitrate=1176.0kbits/s speed=0.446x elapsed=0:00:15.99    frame=  445 fps= 27 q=26.0 size=    1024KiB time=00:00:07.38 bitrate=1136.2kbits/s speed=0.447x elapsed=0:00:16.51    frame=  460 fps= 27 q=26.0 size=    1024KiB time=00:00:07.63 bitrate=1099.0kbits/s speed=0.448x elapsed=0:00:17.02    frame=  474 fps= 27 q=26.0 size=    1024KiB time=00:00:07.86 bitrate=1066.4kbits/s speed=0.449x elapsed=0:00:17.53    frame=  489 fps= 27 q=26.0 size=    1024KiB time=00:00:08.11 bitrate=1033.6kbits/s speed=0.449x elapsed=0:00:18.06    frame=  505 fps= 27 q=26.0 size=    1280KiB time=00:00:08.38 bitrate=1250.8kbits/s speed=0.451x elapsed=0:00:18.57    frame=  521 fps= 27 q=26.0 size=    1280KiB time=00:00:08.65 bitrate=1212.3kbits/s speed=0.453x elapsed=0:00:19.09    frame=  535 fps= 27 q=26.0 size=    1280KiB time=00:00:08.88 bitrate=1180.4kbits/s speed=0.453x elapsed=0:00:19.61    frame=  551 fps= 27 q=26.0 size=    1280KiB time=00:00:09.15 bitrate=1146.0kbits/s speed=0.455x elapsed=0:00:20.12    frame=  565 fps= 27 q=26.0 size=    1280KiB time=00:00:09.38 bitrate=1117.5kbits/s speed=0.455x elapsed=0:00:20.63    frame=  580 fps= 27 q=26.0 size=    1280KiB time=00:00:09.63 bitrate=1088.5kbits/s speed=0.455x elapsed=0:00:21.15    frame=  595 fps= 27 q=26.0 size=    1280KiB time=00:00:09.88 bitrate=1061.0kbits/s speed=0.456x elapsed=0:00:21.66    frame=  610 fps= 28 q=26.0 size=    1280KiB time=00:00:10.13 bitrate=1034.8kbits/s speed=0.457x elapsed=0:00:22.18    frame=  626 fps= 28 q=26.0 size=    1280KiB time=00:00:10.40 bitrate=1008.3kbits/s speed=0.458x elapsed=0:00:22.69    frame=  641 fps= 28 q=26.0 size=    1280KiB time=00:00:10.65 bitrate= 984.6kbits/s speed=0.459x elapsed=0:00:23.21    frame=  656 fps= 28 q=26.0 size=    1280KiB time=00:00:10.90 bitrate= 962.0kbits/s speed=0.459x elapsed=0:00:23.73    frame=  671 fps= 28 q=26.0 size=    1280KiB time=00:00:11.15 bitrate= 940.5kbits/s speed=0.46x elapsed=0:00:24.24    frame=  686 fps= 28 q=26.0 size=    1280KiB time=00:00:11.40 bitrate= 919.8kbits/s speed=0.46x elapsed=0:00:24.77    frame=  701 fps= 28 q=26.0 size=    1280KiB time=00:00:11.65 bitrate= 900.1kbits/s speed=0.461x elapsed=0:00:25.28    frame=  715 fps= 28 q=26.0 size=    1280KiB time=00:00:11.88 bitrate= 882.4kbits/s speed=0.461x elapsed=0:00:25.79    frame=  730 fps= 28 q=26.0 size=    1280KiB time=00:00:12.13 bitrate= 864.2kbits/s speed=0.461x elapsed=0:00:26.30    frame=  744 fps= 28 q=26.0 size=    1280KiB time=00:00:12.36 bitrate= 847.9kbits/s speed=0.461x elapsed=0:00:26.82    frame=  759 fps= 28 q=26.0 size=    1536KiB time=00:00:12.61 bitrate= 997.4kbits/s speed=0.461x elapsed=0:00:27.34    frame=  774 fps= 28 q=26.0 size=    1536KiB time=00:00:12.86 bitrate= 978.0kbits/s speed=0.462x elapsed=0:00:27.86    frame=  788 fps= 28 q=26.0 size=    1536KiB time=00:00:13.10 bitrate= 960.6kbits/s speed=0.462x elapsed=0:00:28.37    frame=  802 fps= 28 q=26.0 size=    1536KiB time=00:00:13.33 bitrate= 943.7kbits/s speed=0.461x elapsed=0:00:28.89    frame=  815 fps= 28 q=26.0 size=    1536KiB time=00:00:13.55 bitrate= 928.7kbits/s speed=0.461x elapsed=0:00:29.40    frame=  829 fps= 28 q=26.0 size=    1536KiB time=00:00:13.78 bitrate= 912.9kbits/s speed=0.461x elapsed=0:00:29.91    frame=  841 fps= 28 q=26.0 size=    1536KiB time=00:00:13.98 bitrate= 899.9kbits/s speed=0.459x elapsed=0:00:30.43    frame=  854 fps= 28 q=26.0 size=    1536KiB time=00:00:14.20 bitrate= 886.1kbits/s speed=0.459x elapsed=0:00:30.94    frame=  868 fps= 28 q=26.0 size=    1536KiB time=00:00:14.43 bitrate= 871.8kbits/s speed=0.459x elapsed=0:00:31.47    frame=  882 fps= 28 q=26.0 size=    1536KiB time=00:00:14.66 bitrate= 858.0kbits/s speed=0.459x elapsed=0:00:31.98    frame=  896 fps= 28 q=26.0 size=    1536KiB time=00:00:14.90 bitrate= 844.5kbits/s speed=0.458x elapsed=0:00:32.49    frame=  911 fps= 28 q=26.0 size=    1792KiB time=00:00:15.15 bitrate= 969.0kbits/s speed=0.459x elapsed=0:00:33.01    frame=  926 fps= 28 q=26.0 size=    1792KiB time=00:00:15.40 bitrate= 953.3kbits/s speed=0.459x elapsed=0:00:33.52    frame=  941 fps= 28 q=26.0 size=    1792KiB time=00:00:15.65 bitrate= 938.0kbits/s speed=0.46x elapsed=0:00:34.04    frame=  957 fps= 28 q=26.0 size=    1792KiB time=00:00:15.91 bitrate= 922.3kbits/s speed=0.461x elapsed=0:00:34.55    frame=  972 fps= 28 q=26.0 size=    1792KiB time=00:00:16.16 bitrate= 908.1kbits/s speed=0.461x elapsed=0:00:35.07    frame=  988 fps= 28 q=26.0 size=    1792KiB time=00:00:16.43 bitrate= 893.3kbits/s speed=0.462x elapsed=0:00:35.60    frame= 1003 fps= 28 q=26.0 size=    2048KiB time=00:00:16.68 bitrate=1005.7kbits/s speed=0.462x elapsed=0:00:36.11    frame= 1018 fps= 28 q=26.0 size=    2048KiB time=00:00:16.93 bitrate= 990.8kbits/s speed=0.462x elapsed=0:00:36.62    frame= 1034 fps= 28 q=26.0 size=    2048KiB time=00:00:17.20 bitrate= 975.4kbits/s speed=0.463x elapsed=0:00:37.14    frame= 1049 fps= 28 q=26.0 size=    2048KiB time=00:00:17.45 bitrate= 961.5kbits/s speed=0.463x elapsed=0:00:37.65    frame= 1064 fps= 28 q=26.0 size=    2048KiB time=00:00:17.70 bitrate= 947.9kbits/s speed=0.464x elapsed=0:00:38.17    frame= 1080 fps= 28 q=26.0 size=    2048KiB time=00:00:17.96 bitrate= 933.8kbits/s speed=0.464x elapsed=0:00:38.68    frame= 1095 fps= 28 q=26.0 size=    2048KiB time=00:00:18.21 bitrate= 921.0kbits/s speed=0.465x elapsed=0:00:39.20    frame= 1110 fps= 28 q=26.0 size=    2048KiB time=00:00:18.46 bitrate= 908.5kbits/s speed=0.465x elapsed=0:00:39.71    frame= 1125 fps= 28 q=26.0 size=    2048KiB time=00:00:18.71 bitrate= 896.4kbits/s speed=0.465x elapsed=0:00:40.22    frame= 1140 fps= 28 q=26.0 size=    2048KiB time=00:00:18.96 bitrate= 884.6kbits/s speed=0.466x elapsed=0:00:40.74    frame= 1156 fps= 28 q=26.0 size=    2048KiB time=00:00:19.23 bitrate= 872.3kbits/s speed=0.466x elapsed=0:00:41.25    frame= 1171 fps= 28 q=26.0 size=    2048KiB time=00:00:19.48 bitrate= 861.1kbits/s speed=0.466x elapsed=0:00:41.78    frame= 1187 fps= 28 q=26.0 size=    2048KiB time=00:00:19.75 bitrate= 849.5kbits/s speed=0.467x elapsed=0:00:42.30    frame= 1202 fps= 28 q=26.0 size=    2048KiB time=00:00:20.00 bitrate= 838.9kbits/s speed=0.467x elapsed=0:00:42.81    frame= 1217 fps= 28 q=26.0 size=    2048KiB time=00:00:20.25 bitrate= 828.5kbits/s speed=0.467x elapsed=0:00:43.32    frame= 1233 fps= 28 q=26.0 size=    2048KiB time=00:00:20.51 bitrate= 817.8kbits/s speed=0.468x elapsed=0:00:43.84    frame= 1248 fps= 28 q=26.0 size=    2048KiB time=00:00:20.76 bitrate= 807.9kbits/s speed=0.468x elapsed=0:00:44.35    frame= 1263 fps= 28 q=26.0 size=    2304KiB time=00:00:21.01 bitrate= 898.1kbits/s speed=0.468x elapsed=0:00:44.86    frame= 1279 fps= 28 q=26.0 size=    2304KiB time=00:00:21.28 bitrate= 886.8kbits/s speed=0.469x elapsed=0:00:45.38    frame= 1294 fps= 28 q=26.0 size=    2304KiB time=00:00:21.53 bitrate= 876.5kbits/s speed=0.469x elapsed=0:00:45.89    frame= 1310 fps= 28 q=26.0 size=    2304KiB time=00:00:21.80 bitrate= 865.8kbits/s speed=0.47x elapsed=0:00:46.41    frame= 1325 fps= 28 q=26.0 size=    2560KiB time=00:00:22.05 bitrate= 951.1kbits/s speed=0.47x elapsed=0:00:46.94    frame= 1340 fps= 28 q=26.0 size=    2560KiB time=00:00:22.30 bitrate= 940.4kbits/s speed=0.47x elapsed=0:00:47.45    frame= 1356 fps= 28 q=26.0 size=    2560KiB time=00:00:22.56 bitrate= 929.3kbits/s speed=0.47x elapsed=0:00:47.97    frame= 1371 fps= 28 q=26.0 size=    2560KiB time=00:00:22.81 bitrate= 919.1kbits/s speed=0.471x elapsed=0:00:48.48    frame= 1386 fps= 28 q=26.0 size=    2560KiB time=00:00:23.06 bitrate= 909.2kbits/s speed=0.471x elapsed=0:00:49.00    frame= 1402 fps= 28 q=26.0 size=    2560KiB time=00:00:23.33 bitrate= 898.8kbits/s speed=0.471x elapsed=0:00:49.51    frame= 1417 fps= 28 q=26.0 size=    2560KiB time=00:00:23.58 bitrate= 889.3kbits/s speed=0.471x elapsed=0:00:50.03    frame= 1432 fps= 28 q=26.0 size=    2560KiB time=00:00:23.83 bitrate= 879.9kbits/s speed=0.472x elapsed=0:00:50.54    frame= 1448 fps= 28 q=26.0 size=    2560KiB time=00:00:24.10 bitrate= 870.2kbits/s speed=0.472x elapsed=0:00:51.05    frame= 1463 fps= 28 q=26.0 size=    2560KiB time=00:00:24.35 bitrate= 861.3kbits/s speed=0.472x elapsed=0:00:51.57    frame= 1478 fps= 28 q=26.0 size=    2560KiB time=00:00:24.60 bitrate= 852.5kbits/s speed=0.472x elapsed=0:00:52.08    frame= 1494 fps= 28 q=26.0 size=    2560KiB time=00:00:24.86 bitrate= 843.4kbits/s speed=0.473x elapsed=0:00:52.61    frame= 1509 fps= 28 q=26.0 size=    2816KiB time=00:00:25.11 bitrate= 918.5kbits/s speed=0.473x elapsed=0:00:53.12    frame= 1524 fps= 28 q=26.0 size=    2816KiB time=00:00:25.36 bitrate= 909.4kbits/s speed=0.473x elapsed=0:00:53.64    frame= 1539 fps= 28 q=26.0 size=    2816KiB time=00:00:25.61 bitrate= 900.5kbits/s speed=0.473x elapsed=0:00:54.15    frame= 1554 fps= 28 q=26.0 size=    2816KiB time=00:00:25.86 bitrate= 891.8kbits/s speed=0.473x elapsed=0:00:54.66    frame= 1570 fps= 28 q=26.0 size=    2816KiB time=00:00:26.13 bitrate= 882.7kbits/s speed=0.473x elapsed=0:00:55.19    frame= 1585 fps= 28 q=26.0 size=    2816KiB time=00:00:26.38 bitrate= 874.4kbits/s speed=0.474x elapsed=0:00:55.70    frame= 1600 fps= 28 q=26.0 size=    2816KiB time=00:00:26.63 bitrate= 866.2kbits/s speed=0.474x elapsed=0:00:56.22    frame= 1616 fps= 28 q=26.0 size=    3072KiB time=00:00:26.90 bitrate= 935.5kbits/s speed=0.474x elapsed=0:00:56.73    frame= 1631 fps= 28 q=26.0 size=    3072KiB time=00:00:27.15 bitrate= 926.9kbits/s speed=0.474x elapsed=0:00:57.24    frame= 1647 fps= 29 q=26.0 size=    3072KiB time=00:00:27.41 bitrate= 917.9kbits/s speed=0.475x elapsed=0:00:57.76    frame= 1662 fps= 29 q=26.0 size=    3072KiB time=00:00:27.66 bitrate= 909.6kbits/s speed=0.475x elapsed=0:00:58.27    frame= 1677 fps= 29 q=26.0 size=    3072KiB time=00:00:27.91 bitrate= 901.5kbits/s speed=0.475x elapsed=0:00:58.78    frame= 1693 fps= 29 q=26.0 size=    3072KiB time=00:00:28.18 bitrate= 892.9kbits/s speed=0.475x elapsed=0:00:59.31    frame= 1708 fps= 29 q=26.0 size=    3072KiB time=00:00:28.43 bitrate= 885.1kbits/s speed=0.475x elapsed=0:00:59.83    frame= 1724 fps= 29 q=26.0 size=    3072KiB time=00:00:28.70 bitrate= 876.9kbits/s speed=0.476x elapsed=0:01:00.34    frame= 1740 fps= 29 q=26.0 size=    3072KiB time=00:00:28.96 bitrate= 868.8kbits/s speed=0.476x elapsed=0:01:00.86    frame= 1755 fps= 29 q=26.0 size=    3328KiB time=00:00:29.21 bitrate= 933.1kbits/s speed=0.476x elapsed=0:01:01.37    frame= 1771 fps= 29 q=26.0 size=    3328KiB time=00:00:29.48 bitrate= 924.7kbits/s speed=0.476x elapsed=0:01:01.89    frame= 1787 fps= 29 q=26.0 size=    3328KiB time=00:00:29.75 bitrate= 916.4kbits/s speed=0.477x elapsed=0:01:02.40    frame= 1802 fps= 29 q=26.0 size=    3328KiB time=00:00:30.00 bitrate= 908.8kbits/s speed=0.477x elapsed=0:01:02.91    frame= 1818 fps= 29 q=26.0 size=    3328KiB time=00:00:30.26 bitrate= 900.8kbits/s speed=0.477x elapsed=0:01:03.43    frame= 1833 fps= 29 q=26.0 size=    3328KiB time=00:00:30.51 bitrate= 893.4kbits/s speed=0.477x elapsed=0:01:03.94    frame= 1848 fps= 29 q=26.0 size=    3584KiB time=00:00:30.76 bitrate= 954.3kbits/s speed=0.477x elapsed=0:01:04.46    frame= 1864 fps= 29 q=26.0 size=    3584KiB time=00:00:31.03 bitrate= 946.1kbits/s speed=0.478x elapsed=0:01:04.99    frame= 1880 fps= 29 q=26.0 size=    3584KiB time=00:00:31.30 bitrate= 938.0kbits/s speed=0.478x elapsed=0:01:05.50    frame= 1895 fps= 29 q=26.0 size=    3584KiB time=00:00:31.55 bitrate= 930.6kbits/s speed=0.478x elapsed=0:01:06.02    frame= 1911 fps= 29 q=26.0 size=    3584KiB time=00:00:31.81 bitrate= 922.8kbits/s speed=0.478x elapsed=0:01:06.53    frame= 1927 fps= 29 q=26.0 size=    3584KiB time=00:00:32.08 bitrate= 915.1kbits/s speed=0.479x elapsed=0:01:07.04    frame= 1942 fps= 29 q=26.0 size=    3584KiB time=00:00:32.33 bitrate= 908.1kbits/s speed=0.479x elapsed=0:01:07.56    frame= 1958 fps= 29 q=26.0 size=    3584KiB time=00:00:32.60 bitrate= 900.6kbits/s speed=0.479x elapsed=0:01:08.07    frame= 1973 fps= 29 q=26.0 size=    3584KiB time=00:00:32.85 bitrate= 893.8kbits/s speed=0.479x elapsed=0:01:08.59    frame= 1989 fps= 29 q=26.0 size=    3584KiB time=00:00:33.11 bitrate= 886.6kbits/s speed=0.479x elapsed=0:01:09.10    frame= 2004 fps= 29 q=26.0 size=    3840KiB time=00:00:33.36 bitrate= 942.8kbits/s speed=0.479x elapsed=0:01:09.62    frame= 2020 fps= 29 q=26.0 size=    3840KiB time=00:00:33.63 bitrate= 935.3kbits/s speed=0.48x elapsed=0:01:10.14    frame= 2035 fps= 29 q=26.0 size=    3840KiB time=00:00:33.88 bitrate= 928.4kbits/s speed=0.48x elapsed=0:01:10.65    frame= 2051 fps= 29 q=26.0 size=    3840KiB time=00:00:34.15 bitrate= 921.2kbits/s speed=0.48x elapsed=0:01:11.16    frame= 2066 fps= 29 q=26.0 size=    4096KiB time=00:00:34.40 bitrate= 975.4kbits/s speed=0.48x elapsed=0:01:11.69    frame= 2082 fps= 29 q=26.0 size=    4096KiB time=00:00:34.66 bitrate= 967.9kbits/s speed=0.48x elapsed=0:01:12.20    frame= 2097 fps= 29 q=26.0 size=    4096KiB time=00:00:34.91 bitrate= 961.0kbits/s speed=0.48x elapsed=0:01:12.72    frame= 2113 fps= 29 q=26.0 size=    4096KiB time=00:00:35.18 bitrate= 953.7kbits/s speed=0.48x elapsed=0:01:13.23    frame= 2128 fps= 29 q=26.0 size=    4096KiB time=00:00:35.43 bitrate= 947.0kbits/s speed=0.48x elapsed=0:01:13.75    frame= 2144 fps= 29 q=26.0 size=    4096KiB time=00:00:35.70 bitrate= 939.9kbits/s speed=0.481x elapsed=0:01:14.26    frame= 2159 fps= 29 q=26.0 size=    4096KiB time=00:00:35.95 bitrate= 933.4kbits/s speed=0.481x elapsed=0:01:14.77    frame= 2174 fps= 29 q=26.0 size=    4096KiB time=00:00:36.20 bitrate= 926.9kbits/s speed=0.481x elapsed=0:01:15.29    frame= 2190 fps= 29 q=26.0 size=    4096KiB time=00:00:36.46 bitrate= 920.2kbits/s speed=0.481x elapsed=0:01:15.80    frame= 2205 fps= 29 q=26.0 size=    4096KiB time=00:00:36.71 bitrate= 913.9kbits/s speed=0.481x elapsed=0:01:16.32    frame= 2221 fps= 29 q=26.0 size=    4352KiB time=00:00:36.98 bitrate= 964.0kbits/s speed=0.481x elapsed=0:01:16.84    frame= 2236 fps= 29 q=26.0 size=    4352KiB time=00:00:37.23 bitrate= 957.5kbits/s speed=0.481x elapsed=0:01:17.35    frame= 2252 fps= 29 q=26.0 size=    4608KiB time=00:00:37.50 bitrate=1006.6kbits/s speed=0.482x elapsed=0:01:17.87    frame= 2267 fps= 29 q=26.0 size=    4608KiB time=00:00:37.75 bitrate=1000.0kbits/s speed=0.482x elapsed=0:01:18.38    frame= 2282 fps= 29 q=26.0 size=    4608KiB time=00:00:38.00 bitrate= 993.4kbits/s speed=0.482x elapsed=0:01:18.90    frame= 2298 fps= 29 q=26.0 size=    4608KiB time=00:00:38.26 bitrate= 986.5kbits/s speed=0.482x elapsed=0:01:19.42    frame= 2314 fps= 29 q=26.0 size=    4608KiB time=00:00:38.53 bitrate= 979.6kbits/s speed=0.482x elapsed=0:01:19.94    frame= 2329 fps= 29 q=26.0 size=    4608KiB time=00:00:38.78 bitrate= 973.3kbits/s speed=0.482x elapsed=0:01:20.45    frame= 2345 fps= 29 q=26.0 size=    4608KiB time=00:00:39.05 bitrate= 966.7kbits/s speed=0.482x elapsed=0:01:20.96    frame= 2360 fps= 29 q=26.0 size=    4608KiB time=00:00:39.30 bitrate= 960.5kbits/s speed=0.482x elapsed=0:01:21.48    frame= 2376 fps= 29 q=26.0 size=    4608KiB time=00:00:39.56 bitrate= 954.1kbits/s speed=0.483x elapsed=0:01:21.99    frame= 2391 fps= 29 q=26.0 size=    4864KiB time=00:00:39.81 bitrate=1000.7kbits/s speed=0.483x elapsed=0:01:22.51    frame= 2407 fps= 29 q=26.0 size=    4864KiB time=00:00:40.08 bitrate= 994.1kbits/s speed=0.483x elapsed=0:01:23.03    frame= 2422 fps= 29 q=26.0 size=    4864KiB time=00:00:40.33 bitrate= 987.9kbits/s speed=0.483x elapsed=0:01:23.55    frame= 2438 fps= 29 q=26.0 size=    4864KiB time=00:00:40.60 bitrate= 981.4kbits/s speed=0.483x elapsed=0:01:24.06    frame= 2453 fps= 29 q=26.0 size=    4864KiB time=00:00:40.85 bitrate= 975.4kbits/s speed=0.483x elapsed=0:01:24.58    frame= 2468 fps= 29 q=26.0 size=    4864KiB time=00:00:41.10 bitrate= 969.5kbits/s speed=0.483x elapsed=0:01:25.09    frame= 2484 fps= 29 q=24.0 size=    4864KiB time=00:00:41.36 bitrate= 963.2kbits/s speed=0.483x elapsed=0:01:25.60    frame= 2499 fps= 29 q=26.0 size=    4864KiB time=00:00:41.61 bitrate= 957.5kbits/s speed=0.483x elapsed=0:01:26.11    frame= 2514 fps= 29 q=26.0 size=    5120KiB time=00:00:41.86 bitrate=1001.8kbits/s speed=0.483x elapsed=0:01:26.63    frame= 2530 fps= 29 q=26.0 size=    5120KiB time=00:00:42.13 bitrate= 995.5kbits/s speed=0.483x elapsed=0:01:27.15    frame= 2545 fps= 29 q=26.0 size=    5120KiB time=00:00:42.38 bitrate= 989.6kbits/s speed=0.483x elapsed=0:01:27.66    frame= 2561 fps= 29 q=26.0 size=    5376KiB time=00:00:42.65 bitrate=1032.6kbits/s speed=0.484x elapsed=0:01:28.18    frame= 2577 fps= 29 q=26.0 size=    5376KiB time=00:00:42.91 bitrate=1026.2kbits/s speed=0.484x elapsed=0:01:28.70    frame= 2592 fps= 29 q=26.0 size=    5376KiB time=00:00:43.16 bitrate=1020.2kbits/s speed=0.484x elapsed=0:01:29.22    frame= 2608 fps= 29 q=26.0 size=    5376KiB time=00:00:43.43 bitrate=1014.0kbits/s speed=0.484x elapsed=0:01:29.73    frame= 2622 fps= 29 q=26.0 size=    5376KiB time=00:00:43.66 bitrate=1008.6kbits/s speed=0.484x elapsed=0:01:30.25    frame= 2637 fps= 29 q=26.0 size=    5376KiB time=00:00:43.91 bitrate=1002.8kbits/s speed=0.484x elapsed=0:01:30.76    frame= 2652 fps= 29 q=26.0 size=    5376KiB time=00:00:44.16 bitrate= 997.1kbits/s speed=0.484x elapsed=0:01:31.27    frame= 2668 fps= 29 q=26.0 size=    5376KiB time=00:00:44.43 bitrate= 991.2kbits/s speed=0.484x elapsed=0:01:31.78    frame= 2683 fps= 29 q=26.0 size=    5632KiB time=00:00:44.68 bitrate=1032.5kbits/s speed=0.484x elapsed=0:01:32.30    frame= 2699 fps= 29 q=26.0 size=    5632KiB time=00:00:44.95 bitrate=1026.4kbits/s speed=0.484x elapsed=0:01:32.83    frame= 2715 fps= 29 q=26.0 size=    5632KiB time=00:00:45.21 bitrate=1020.4kbits/s speed=0.484x elapsed=0:01:33.34    frame= 2730 fps= 29 q=26.0 size=    5632KiB time=00:00:45.46 bitrate=1014.8kbits/s speed=0.484x elapsed=0:01:33.86    frame= 2746 fps= 29 q=26.0 size=    5632KiB time=00:00:45.73 bitrate=1008.8kbits/s speed=0.485x elapsed=0:01:34.37    frame= 2761 fps= 29 q=26.0 size=    5888KiB time=00:00:45.98 bitrate=1049.0kbits/s speed=0.485x elapsed=0:01:34.89    frame= 2777 fps= 29 q=26.0 size=    5888KiB time=00:00:46.25 bitrate=1042.9kbits/s speed=0.485x elapsed=0:01:35.40    frame= 2792 fps= 29 q=26.0 size=    5888KiB time=00:00:46.50 bitrate=1037.3kbits/s speed=0.485x elapsed=0:01:35.91    frame= 2808 fps= 29 q=26.0 size=    5888KiB time=00:00:46.76 bitrate=1031.4kbits/s speed=0.485x elapsed=0:01:36.43    frame= 2823 fps= 29 q=26.0 size=    6144KiB time=00:00:47.01 bitrate=1070.5kbits/s speed=0.485x elapsed=0:01:36.94    frame= 2838 fps= 29 q=26.0 size=    6144KiB time=00:00:47.26 bitrate=1064.9kbits/s speed=0.485x elapsed=0:01:37.46    frame= 2854 fps= 29 q=26.0 size=    6144KiB time=00:00:47.53 bitrate=1058.9kbits/s speed=0.485x elapsed=0:01:37.97    frame= 2869 fps= 29 q=26.0 size=    6144KiB time=00:00:47.78 bitrate=1053.3kbits/s speed=0.485x elapsed=0:01:38.50    frame= 2884 fps= 29 q=26.0 size=    6144KiB time=00:00:48.03 bitrate=1047.9kbits/s speed=0.485x elapsed=0:01:39.02    frame= 2899 fps= 29 q=26.0 size=    6144KiB time=00:00:48.28 bitrate=1042.4kbits/s speed=0.485x elapsed=0:01:39.53    frame= 2914 fps= 29 q=26.0 size=    6144KiB time=00:00:48.53 bitrate=1037.1kbits/s speed=0.485x elapsed=0:01:40.04    frame= 2930 fps= 29 q=26.0 size=    6400KiB time=00:00:48.80 bitrate=1074.4kbits/s speed=0.485x elapsed=0:01:40.55    frame= 2945 fps= 29 q=26.0 size=    6400KiB time=00:00:49.05 bitrate=1068.9kbits/s speed=0.485x elapsed=0:01:41.07    frame= 2961 fps= 29 q=26.0 size=    6400KiB time=00:00:49.31 bitrate=1063.1kbits/s speed=0.485x elapsed=0:01:41.58    frame= 2976 fps= 29 q=26.0 size=    6400KiB time=00:00:49.56 bitrate=1057.8kbits/s speed=0.485x elapsed=0:01:42.10    frame= 2992 fps= 29 q=26.0 size=    6400KiB time=00:00:49.83 bitrate=1052.1kbits/s speed=0.486x elapsed=0:01:42.62    frame= 3007 fps= 29 q=26.0 size=    6656KiB time=00:00:50.08 bitrate=1088.7kbits/s speed=0.486x elapsed=0:01:43.13    frame= 3022 fps= 29 q=26.0 size=    6656KiB time=00:00:50.33 bitrate=1083.3kbits/s speed=0.486x elapsed=0:01:43.64    frame= 3038 fps= 29 q=26.0 size=    6656KiB time=00:00:50.60 bitrate=1077.6kbits/s speed=0.486x elapsed=0:01:44.17    frame= 3053 fps= 29 q=26.0 size=    6656KiB time=00:00:50.85 bitrate=1072.3kbits/s speed=0.486x elapsed=0:01:44.68    frame= 3068 fps= 29 q=26.0 size=    6912KiB time=00:00:51.10 bitrate=1108.1kbits/s speed=0.486x elapsed=0:01:45.20    frame= 3084 fps= 29 q=26.0 size=    6912KiB time=00:00:51.36 bitrate=1102.3kbits/s speed=0.486x elapsed=0:01:45.71    frame= 3099 fps= 29 q=26.0 size=    6912KiB time=00:00:51.61 bitrate=1097.0kbits/s speed=0.486x elapsed=0:01:46.23    frame= 3114 fps= 29 q=26.0 size=    6912KiB time=00:00:51.86 bitrate=1091.7kbits/s speed=0.486x elapsed=0:01:46.74    frame= 3130 fps= 29 q=26.0 size=    6912KiB time=00:00:52.13 bitrate=1086.1kbits/s speed=0.486x elapsed=0:01:47.25    frame= 3146 fps= 29 q=26.0 size=    6912KiB time=00:00:52.40 bitrate=1080.6kbits/s speed=0.486x elapsed=0:01:47.78    frame= 3161 fps= 29 q=26.0 size=    7168KiB time=00:00:52.65 bitrate=1115.3kbits/s speed=0.486x elapsed=0:01:48.29    frame= 3176 fps= 29 q=26.0 size=    7168KiB time=00:00:52.90 bitrate=1110.0kbits/s speed=0.486x elapsed=0:01:48.81    frame= 3191 fps= 29 q=26.0 size=    7168KiB time=00:00:53.15 bitrate=1104.8kbits/s speed=0.486x elapsed=0:01:49.32    frame= 3207 fps= 29 q=26.0 size=    7168KiB time=00:00:53.41 bitrate=1099.3kbits/s speed=0.486x elapsed=0:01:49.83    frame= 3223 fps= 29 q=26.0 size=    7168KiB time=00:00:53.68 bitrate=1093.8kbits/s speed=0.486x elapsed=0:01:50.36    frame= 3238 fps= 29 q=26.0 size=    7168KiB time=00:00:53.93 bitrate=1088.8kbits/s speed=0.486x elapsed=0:01:50.87    frame= 3253 fps= 29 q=26.0 size=    7424KiB time=00:00:54.18 bitrate=1122.4kbits/s speed=0.486x elapsed=0:01:51.39    frame= 3269 fps= 29 q=26.0 size=    7424KiB time=00:00:54.45 bitrate=1116.9kbits/s speed=0.487x elapsed=0:01:51.91    frame= 3285 fps= 29 q=26.0 size=    7424KiB time=00:00:54.71 bitrate=1111.5kbits/s speed=0.487x elapsed=0:01:52.42    frame= 3300 fps= 29 q=26.0 size=    7680KiB time=00:00:54.96 bitrate=1144.6kbits/s speed=0.487x elapsed=0:01:52.94    frame= 3315 fps= 29 q=26.0 size=    7680KiB time=00:00:55.21 bitrate=1139.4kbits/s speed=0.487x elapsed=0:01:53.45    frame= 3331 fps= 29 q=26.0 size=    7680KiB time=00:00:55.48 bitrate=1133.9kbits/s speed=0.487x elapsed=0:01:53.96    frame= 3346 fps= 29 q=26.0 size=    7680KiB time=00:00:55.73 bitrate=1128.9kbits/s speed=0.487x elapsed=0:01:54.48    frame= 3362 fps= 29 q=26.0 size=    7680KiB time=00:00:56.00 bitrate=1123.5kbits/s speed=0.487x elapsed=0:01:54.99    frame= 3377 fps= 29 q=26.0 size=    7680KiB time=00:00:56.25 bitrate=1118.5kbits/s speed=0.487x elapsed=0:01:55.50    frame= 3393 fps= 29 q=26.0 size=    7680KiB time=00:00:56.51 bitrate=1113.2kbits/s speed=0.487x elapsed=0:01:56.02    frame= 3410 fps= 29 q=26.0 size=    7936KiB time=00:00:56.80 bitrate=1144.6kbits/s speed=0.487x elapsed=0:01:56.55    frame= 3426 fps= 29 q=26.0 size=    7936KiB time=00:00:57.06 bitrate=1139.2kbits/s speed=0.487x elapsed=0:01:57.06    frame= 3442 fps= 29 q=26.0 size=    7936KiB time=00:00:57.33 bitrate=1133.9kbits/s speed=0.488x elapsed=0:01:57.57    frame= 3457 fps= 29 q=26.0 size=    7936KiB time=00:00:57.58 bitrate=1129.0kbits/s speed=0.488x elapsed=0:01:58.09    frame= 3473 fps= 29 q=26.0 size=    7936KiB time=00:00:57.85 bitrate=1123.8kbits/s speed=0.488x elapsed=0:01:58.60    frame= 3489 fps= 29 q=26.0 size=    7936KiB time=00:00:58.11 bitrate=1118.6kbits/s speed=0.488x elapsed=0:01:59.12    frame= 3505 fps= 29 q=26.0 size=    8192KiB time=00:00:58.38 bitrate=1149.5kbits/s speed=0.488x elapsed=0:01:59.63    frame= 3520 fps= 29 q=26.0 size=    8192KiB time=00:00:58.63 bitrate=1144.6kbits/s speed=0.488x elapsed=0:02:00.15    frame= 3536 fps= 29 q=26.0 size=    8192KiB time=00:00:58.90 bitrate=1139.4kbits/s speed=0.488x elapsed=0:02:00.66    frame= 3552 fps= 29 q=26.0 size=    8192KiB time=00:00:59.16 bitrate=1134.2kbits/s speed=0.488x elapsed=0:02:01.18    frame= 3567 fps= 29 q=26.0 size=    8192KiB time=00:00:59.41 bitrate=1129.5kbits/s speed=0.488x elapsed=0:02:01.69    frame= 3582 fps= 29 q=26.0 size=    8192KiB time=00:00:59.66 bitrate=1124.7kbits/s speed=0.488x elapsed=0:02:02.21    frame= 3598 fps= 29 q=26.0 size=    8448KiB time=00:00:59.93 bitrate=1154.7kbits/s speed=0.488x elapsed=0:02:02.74    frame= 3616 fps= 29 q=26.0 size=    8448KiB time=00:01:00.23 bitrate=1149.0kbits/s speed=0.489x elapsed=0:02:03.25    frame= 3635 fps= 29 q=26.0 size=    8448KiB time=00:01:00.55 bitrate=1143.0kbits/s speed=0.489x elapsed=0:02:03.76    frame= 3652 fps= 29 q=26.0 size=    8448KiB time=00:01:00.83 bitrate=1137.6kbits/s speed=0.489x elapsed=0:02:04.28    frame= 3668 fps= 29 q=26.0 size=    8448KiB time=00:01:01.10 bitrate=1132.7kbits/s speed=0.49x elapsed=0:02:04.79    frame= 3685 fps= 29 q=26.0 size=    8448KiB time=00:01:01.38 bitrate=1127.4kbits/s speed=0.49x elapsed=0:02:05.30    frame= 3703 fps= 29 q=26.0 size=    8448KiB time=00:01:01.68 bitrate=1122.0kbits/s speed=0.49x elapsed=0:02:05.82    frame= 3719 fps= 29 q=26.0 size=    8448KiB time=00:01:01.95 bitrate=1117.1kbits/s speed=0.49x elapsed=0:02:06.34    frame= 3735 fps= 29 q=26.0 size=    8448KiB time=00:01:02.21 bitrate=1112.3kbits/s speed=0.49x elapsed=0:02:06.85    frame= 3752 fps= 29 q=26.0 size=    8704KiB time=00:01:02.50 bitrate=1140.9kbits/s speed=0.491x elapsed=0:02:07.37    frame= 3768 fps= 29 q=26.0 size=    8704KiB time=00:01:02.76 bitrate=1136.0kbits/s speed=0.491x elapsed=0:02:07.88    frame= 3785 fps= 29 q=26.0 size=    8704KiB time=00:01:03.05 bitrate=1130.9kbits/s speed=0.491x elapsed=0:02:08.40    frame= 3801 fps= 29 q=26.0 size=    8704KiB time=00:01:03.31 bitrate=1126.1kbits/s speed=0.491x elapsed=0:02:08.91    frame= 3817 fps= 29 q=26.0 size=    8704KiB time=00:01:03.58 bitrate=1121.4kbits/s speed=0.491x elapsed=0:02:09.43    frame= 3833 fps= 29 q=26.0 size=    8960KiB time=00:01:03.85 bitrate=1149.6kbits/s speed=0.491x elapsed=0:02:09.95    frame= 3850 fps= 30 q=26.0 size=    8960KiB time=00:01:04.13 bitrate=1144.5kbits/s speed=0.492x elapsed=0:02:10.46    frame= 3866 fps= 30 q=26.0 size=    8960KiB time=00:01:04.40 bitrate=1139.8kbits/s speed=0.492x elapsed=0:02:10.99    frame= 3883 fps= 30 q=26.0 size=    8960KiB time=00:01:04.68 bitrate=1134.8kbits/s speed=0.492x elapsed=0:02:11.51    frame= 3899 fps= 30 q=26.0 size=    8960KiB time=00:01:04.95 bitrate=1130.1kbits/s speed=0.492x elapsed=0:02:12.02    frame= 3915 fps= 30 q=26.0 size=    8960KiB time=00:01:05.21 bitrate=1125.5kbits/s speed=0.492x elapsed=0:02:12.55    frame= 3930 fps= 30 q=26.0 size=    8960KiB time=00:01:05.46 bitrate=1121.2kbits/s speed=0.492x elapsed=0:02:13.06    frame= 3945 fps= 30 q=26.0 size=    8960KiB time=00:01:05.71 bitrate=1116.9kbits/s speed=0.492x elapsed=0:02:13.57    frame= 3961 fps= 30 q=26.0 size=    8960KiB time=00:01:05.98 bitrate=1112.4kbits/s speed=0.492x elapsed=0:02:14.09    frame= 3977 fps= 30 q=26.0 size=    8960KiB time=00:01:06.25 bitrate=1107.9kbits/s speed=0.492x elapsed=0:02:14.60    frame= 3992 fps= 30 q=26.0 size=    8960KiB time=00:01:06.50 bitrate=1103.8kbits/s speed=0.492x elapsed=0:02:15.11    frame= 4008 fps= 30 q=26.0 size=    9216KiB time=00:01:06.76 bitrate=1130.8kbits/s speed=0.492x elapsed=0:02:15.64    frame= 4024 fps= 30 q=26.0 size=    9216KiB time=00:01:07.03 bitrate=1126.3kbits/s speed=0.492x elapsed=0:02:16.15    frame= 4040 fps= 30 q=26.0 size=    9216KiB time=00:01:07.30 bitrate=1121.8kbits/s speed=0.492x elapsed=0:02:16.67    frame= 4056 fps= 30 q=26.0 size=    9216KiB time=00:01:07.56 bitrate=1117.4kbits/s speed=0.493x elapsed=0:02:17.18    frame= 4071 fps= 30 q=26.0 size=    9216KiB time=00:01:07.81 bitrate=1113.3kbits/s speed=0.493x elapsed=0:02:17.69    frame= 4087 fps= 30 q=26.0 size=    9216KiB time=00:01:08.08 bitrate=1108.9kbits/s speed=0.493x elapsed=0:02:18.22    frame= 4103 fps= 30 q=26.0 size=    9216KiB time=00:01:08.35 bitrate=1104.6kbits/s speed=0.493x elapsed=0:02:18.73    frame= 4119 fps= 30 q=26.0 size=    9216KiB time=00:01:08.61 bitrate=1100.3kbits/s speed=0.493x elapsed=0:02:19.25    frame= 4134 fps= 30 q=26.0 size=    9472KiB time=00:01:08.86 bitrate=1126.7kbits/s speed=0.493x elapsed=0:02:19.76    frame= 4150 fps= 30 q=26.0 size=    9472KiB time=00:01:09.13 bitrate=1122.4kbits/s speed=0.493x elapsed=0:02:20.27    frame= 4165 fps= 30 q=26.0 size=    9472KiB time=00:01:09.38 bitrate=1118.4kbits/s speed=0.493x elapsed=0:02:20.80    frame= 4181 fps= 30 q=26.0 size=    9472KiB time=00:01:09.65 bitrate=1114.1kbits/s speed=0.493x elapsed=0:02:21.30    frame= 4196 fps= 30 q=26.0 size=    9472KiB time=00:01:09.90 bitrate=1110.1kbits/s speed=0.493x elapsed=0:02:21.83    frame= 4211 fps= 30 q=26.0 size=    9472KiB time=00:01:10.15 bitrate=1106.1kbits/s speed=0.493x elapsed=0:02:22.34    frame= 4225 fps= 30 q=26.0 size=    9472KiB time=00:01:10.38 bitrate=1102.5kbits/s speed=0.493x elapsed=0:02:22.85    frame= 4238 fps= 30 q=26.0 size=    9472KiB time=00:01:10.60 bitrate=1099.1kbits/s speed=0.492x elapsed=0:02:23.37    frame= 4251 fps= 30 q=26.0 size=    9472KiB time=00:01:10.81 bitrate=1095.7kbits/s speed=0.492x elapsed=0:02:23.88    frame= 4265 fps= 30 q=26.0 size=    9472KiB time=00:01:11.05 bitrate=1092.1kbits/s speed=0.492x elapsed=0:02:24.39    frame= 4281 fps= 30 q=26.0 size=    9728KiB time=00:01:11.31 bitrate=1117.4kbits/s speed=0.492x elapsed=0:02:24.92    frame= 4296 fps= 30 q=26.0 size=    9728KiB time=00:01:11.56 bitrate=1113.5kbits/s speed=0.492x elapsed=0:02:25.44    frame= 4311 fps= 30 q=26.0 size=    9728KiB time=00:01:11.81 bitrate=1109.7kbits/s speed=0.492x elapsed=0:02:25.95    frame= 4327 fps= 30 q=26.0 size=    9728KiB time=00:01:12.08 bitrate=1105.6kbits/s speed=0.492x elapsed=0:02:26.47    frame= 4342 fps= 30 q=26.0 size=    9728KiB time=00:01:12.33 bitrate=1101.7kbits/s speed=0.492x elapsed=0:02:26.98    frame= 4357 fps= 30 q=26.0 size=    9728KiB time=00:01:12.58 bitrate=1097.9kbits/s speed=0.492x elapsed=0:02:27.49    frame= 4372 fps= 30 q=26.0 size=    9728KiB time=00:01:12.83 bitrate=1094.2kbits/s speed=0.492x elapsed=0:02:28.01    frame= 4386 fps= 30 q=26.0 size=    9728KiB time=00:01:13.06 bitrate=1090.7kbits/s speed=0.492x elapsed=0:02:28.52    frame= 4402 fps= 30 q=26.0 size=    9728KiB time=00:01:13.33 bitrate=1086.7kbits/s speed=0.492x elapsed=0:02:29.04    frame= 4417 fps= 30 q=26.0 size=    9728KiB time=00:01:13.58 bitrate=1083.0kbits/s speed=0.492x elapsed=0:02:29.56    frame= 4432 fps= 30 q=26.0 size=    9728KiB time=00:01:13.83 bitrate=1079.4kbits/s speed=0.492x elapsed=0:02:30.08    frame= 4448 fps= 30 q=26.0 size=    9728KiB time=00:01:14.10 bitrate=1075.5kbits/s speed=0.492x elapsed=0:02:30.59    frame= 4464 fps= 30 q=26.0 size=    9728KiB time=00:01:14.36 bitrate=1071.6kbits/s speed=0.492x elapsed=0:02:31.10    frame= 4480 fps= 30 q=26.0 size=    9728KiB time=00:01:14.63 bitrate=1067.8kbits/s speed=0.492x elapsed=0:02:31.62    frame= 4495 fps= 30 q=26.0 size=    9728KiB time=00:01:14.88 bitrate=1064.2kbits/s speed=0.492x elapsed=0:02:32.13    frame= 4511 fps= 30 q=26.0 size=    9984KiB time=00:01:15.15 bitrate=1088.3kbits/s speed=0.492x elapsed=0:02:32.66    frame= 4526 fps= 30 q=26.0 size=    9984KiB time=00:01:15.40 bitrate=1084.7kbits/s speed=0.492x elapsed=0:02:33.17    frame= 4541 fps= 30 q=26.0 size=    9984KiB time=00:01:15.65 bitrate=1081.2kbits/s speed=0.492x elapsed=0:02:33.69    frame= 4556 fps= 30 q=26.0 size=    9984KiB time=00:01:15.90 bitrate=1077.6kbits/s speed=0.492x elapsed=0:02:34.20    frame= 4571 fps= 30 q=26.0 size=    9984KiB time=00:01:16.15 bitrate=1074.1kbits/s speed=0.492x elapsed=0:02:34.71    frame= 4587 fps= 30 q=26.0 size=    9984KiB time=00:01:16.41 bitrate=1070.3kbits/s speed=0.492x elapsed=0:02:35.23    frame= 4600 fps= 30 q=26.0 size=    9984KiB time=00:01:16.63 bitrate=1067.3kbits/s speed=0.492x elapsed=0:02:35.74    frame= 4613 fps= 30 q=26.0 size=    9984KiB time=00:01:16.85 bitrate=1064.3kbits/s speed=0.492x elapsed=0:02:36.25    frame= 4628 fps= 30 q=26.0 size=    9984KiB time=00:01:17.10 bitrate=1060.8kbits/s speed=0.492x elapsed=0:02:36.77    frame= 4644 fps= 30 q=26.0 size=    9984KiB time=00:01:17.36 bitrate=1057.2kbits/s speed=0.492x elapsed=0:02:37.30    frame= 4659 fps= 30 q=26.0 size=    9984KiB time=00:01:17.61 bitrate=1053.8kbits/s speed=0.492x elapsed=0:02:37.81    frame= 4673 fps= 30 q=26.0 size=    9984KiB time=00:01:17.85 bitrate=1050.6kbits/s speed=0.492x elapsed=0:02:38.32    frame= 4688 fps= 30 q=26.0 size=    9984KiB time=00:01:18.10 bitrate=1047.2kbits/s speed=0.492x elapsed=0:02:38.84    frame= 4704 fps= 30 q=26.0 size=    9984KiB time=00:01:18.36 bitrate=1043.7kbits/s speed=0.492x elapsed=0:02:39.35    frame= 4719 fps= 30 q=26.0 size=    9984KiB time=00:01:18.61 bitrate=1040.4kbits/s speed=0.492x elapsed=0:02:39.86    frame= 4735 fps= 30 q=26.0 size=    9984KiB time=00:01:18.88 bitrate=1036.8kbits/s speed=0.492x elapsed=0:02:40.38    frame= 4750 fps= 30 q=26.0 size=    9984KiB time=00:01:19.13 bitrate=1033.6kbits/s speed=0.492x elapsed=0:02:40.91    frame= 4765 fps= 30 q=26.0 size=   10240KiB time=00:01:19.38 bitrate=1056.7kbits/s speed=0.492x elapsed=0:02:41.42    frame= 4780 fps= 30 q=26.0 size=   10240KiB time=00:01:19.63 bitrate=1053.4kbits/s speed=0.492x elapsed=0:02:41.94    frame= 4796 fps= 30 q=26.0 size=   10240KiB time=00:01:19.90 bitrate=1049.9kbits/s speed=0.492x elapsed=0:02:42.45    frame= 4811 fps= 30 q=26.0 size=   10240KiB time=00:01:20.15 bitrate=1046.6kbits/s speed=0.492x elapsed=0:02:42.96    frame= 4826 fps= 30 q=26.0 size=   10240KiB time=00:01:20.40 bitrate=1043.4kbits/s speed=0.492x elapsed=0:02:43.47    frame= 4842 fps= 30 q=26.0 size=   10240KiB time=00:01:20.66 bitrate=1039.9kbits/s speed=0.492x elapsed=0:02:43.99    frame= 4858 fps= 30 q=26.0 size=   10240KiB time=00:01:20.93 bitrate=1036.5kbits/s speed=0.492x elapsed=0:02:44.52    frame= 4874 fps= 30 q=26.0 size=   10240KiB time=00:01:21.20 bitrate=1033.1kbits/s speed=0.492x elapsed=0:02:45.03    frame= 4890 fps= 30 q=26.0 size=   10240KiB time=00:01:21.46 bitrate=1029.7kbits/s speed=0.492x elapsed=0:02:45.54    frame= 4905 fps= 30 q=26.0 size=   10240KiB time=00:01:21.71 bitrate=1026.6kbits/s speed=0.492x elapsed=0:02:46.06    frame= 4921 fps= 30 q=26.0 size=   10240KiB time=00:01:21.98 bitrate=1023.2kbits/s speed=0.492x elapsed=0:02:46.57    frame= 4936 fps= 30 q=26.0 size=   10240KiB time=00:01:22.23 bitrate=1020.1kbits/s speed=0.492x elapsed=0:02:47.08    frame= 4952 fps= 30 q=26.0 size=   10240KiB time=00:01:22.50 bitrate=1016.8kbits/s speed=0.492x elapsed=0:02:47.60    frame= 4967 fps= 30 q=26.0 size=   10240KiB time=00:01:22.75 bitrate=1013.7kbits/s speed=0.492x elapsed=0:02:48.13    frame= 4981 fps= 30 q=26.0 size=   10240KiB time=00:01:22.98 bitrate=1010.9kbits/s speed=0.492x elapsed=0:02:48.64    frame= 4994 fps= 30 q=26.0 size=   10240KiB time=00:01:23.20 bitrate=1008.3kbits/s speed=0.492x elapsed=0:02:49.15    frame= 5010 fps= 30 q=26.0 size=   10240KiB time=00:01:23.46 bitrate=1005.0kbits/s speed=0.492x elapsed=0:02:49.66    frame= 5026 fps= 30 q=26.0 size=   10240KiB time=00:01:23.73 bitrate=1001.8kbits/s speed=0.492x elapsed=0:02:50.18    frame= 5042 fps= 30 q=26.0 size=   10240KiB time=00:01:24.00 bitrate= 998.6kbits/s speed=0.492x elapsed=0:02:50.70    frame= 5057 fps= 30 q=26.0 size=   10240KiB time=00:01:24.25 bitrate= 995.7kbits/s speed=0.492x elapsed=0:02:51.22    frame= 5073 fps= 30 q=26.0 size=   10240KiB time=00:01:24.51 bitrate= 992.5kbits/s speed=0.492x elapsed=0:02:51.73    frame= 5089 fps= 30 q=26.0 size=   10496KiB time=00:01:24.78 bitrate=1014.2kbits/s speed=0.492x elapsed=0:02:52.25    frame= 5106 fps= 30 q=26.0 size=   10496KiB time=00:01:25.06 bitrate=1010.8kbits/s speed=0.492x elapsed=0:02:52.76    frame= 5121 fps= 30 q=26.0 size=   10496KiB time=00:01:25.31 bitrate=1007.8kbits/s speed=0.492x elapsed=0:02:53.27    frame= 5137 fps= 30 q=26.0 size=   10496KiB time=00:01:25.58 bitrate=1004.7kbits/s speed=0.492x elapsed=0:02:53.79    frame= 5153 fps= 30 q=26.0 size=   10496KiB time=00:01:25.85 bitrate=1001.6kbits/s speed=0.492x elapsed=0:02:54.32    frame= 5169 fps= 30 q=26.0 size=   10496KiB time=00:01:26.11 bitrate= 998.5kbits/s speed=0.493x elapsed=0:02:54.84    frame= 5185 fps= 30 q=26.0 size=   10496KiB time=00:01:26.38 bitrate= 995.4kbits/s speed=0.493x elapsed=0:02:55.36    frame= 5200 fps= 30 q=26.0 size=   10496KiB time=00:01:26.63 bitrate= 992.5kbits/s speed=0.493x elapsed=0:02:55.87    frame= 5215 fps= 30 q=26.0 size=   10496KiB time=00:01:26.88 bitrate= 989.6kbits/s speed=0.493x elapsed=0:02:56.38    frame= 5231 fps= 30 q=26.0 size=   10496KiB time=00:01:27.15 bitrate= 986.6kbits/s speed=0.493x elapsed=0:02:56.89    frame= 5246 fps= 30 q=26.0 size=   10496KiB time=00:01:27.40 bitrate= 983.8kbits/s speed=0.493x elapsed=0:02:57.42    frame= 5262 fps= 30 q=26.0 size=   10496KiB time=00:01:27.66 bitrate= 980.8kbits/s speed=0.493x elapsed=0:02:57.93    frame= 5277 fps= 30 q=26.0 size=   10496KiB time=00:01:27.91 bitrate= 978.0kbits/s speed=0.493x elapsed=0:02:58.45    frame= 5293 fps= 30 q=26.0 size=   10496KiB time=00:01:28.18 bitrate= 975.1kbits/s speed=0.493x elapsed=0:02:58.96    frame= 5308 fps= 30 q=26.0 size=   10496KiB time=00:01:28.43 bitrate= 972.3kbits/s speed=0.493x elapsed=0:02:59.47    frame= 5324 fps= 30 q=26.0 size=   10496KiB time=00:01:28.70 bitrate= 969.4kbits/s speed=0.493x elapsed=0:02:59.99    frame= 5340 fps= 30 q=26.0 size=   10496KiB time=00:01:28.96 bitrate= 966.5kbits/s speed=0.493x elapsed=0:03:00.52    frame= 5355 fps= 30 q=26.0 size=   10496KiB time=00:01:29.21 bitrate= 963.8kbits/s speed=0.493x elapsed=0:03:01.03    frame= 5371 fps= 30 q=26.0 size=   10496KiB time=00:01:29.48 bitrate= 960.9kbits/s speed=0.493x elapsed=0:03:01.55    frame= 5386 fps= 30 q=26.0 size=   10496KiB time=00:01:29.73 bitrate= 958.2kbits/s speed=0.493x elapsed=0:03:02.06    frame= 5402 fps= 30 q=26.0 size=   10496KiB time=00:01:30.00 bitrate= 955.4kbits/s speed=0.493x elapsed=0:03:02.58    frame= 5417 fps= 30 q=26.0 size=   10496KiB time=00:01:30.25 bitrate= 952.7kbits/s speed=0.493x elapsed=0:03:03.09    frame= 5432 fps= 30 q=26.0 size=   10496KiB time=00:01:30.50 bitrate= 950.1kbits/s speed=0.493x elapsed=0:03:03.60    frame= 5448 fps= 30 q=26.0 size=   10496KiB time=00:01:30.76 bitrate= 947.3kbits/s speed=0.493x elapsed=0:03:04.12    frame= 5463 fps= 30 q=26.0 size=   10496KiB time=00:01:31.01 bitrate= 944.7kbits/s speed=0.493x elapsed=0:03:04.63    frame= 5479 fps= 30 q=26.0 size=   10496KiB time=00:01:31.28 bitrate= 941.9kbits/s speed=0.493x elapsed=0:03:05.16    frame= 5494 fps= 30 q=26.0 size=   10752KiB time=00:01:31.53 bitrate= 962.3kbits/s speed=0.493x elapsed=0:03:05.67    frame= 5510 fps= 30 q=26.0 size=   10752KiB time=00:01:31.80 bitrate= 959.5kbits/s speed=0.493x elapsed=0:03:06.18    frame= 5525 fps= 30 q=26.0 size=   10752KiB time=00:01:32.05 bitrate= 956.9kbits/s speed=0.493x elapsed=0:03:06.70    frame= 5552 fps= 30 q=26.0 size=   10752KiB time=00:01:32.50 bitrate= 952.2kbits/s speed=0.494x elapsed=0:03:07.21    frame= 5582 fps= 30 q=26.0 size=   10752KiB time=00:01:33.00 bitrate= 947.1kbits/s speed=0.495x elapsed=0:03:07.72    frame= 5612 fps= 30 q=26.0 size=   10752KiB time=00:01:33.50 bitrate= 942.0kbits/s speed=0.497x elapsed=0:03:08.24    frame= 5641 fps= 30 q=26.0 size=   10752KiB time=00:01:33.98 bitrate= 937.2kbits/s speed=0.498x elapsed=0:03:08.77    frame= 5671 fps= 30 q=26.0 size=   10752KiB time=00:01:34.48 bitrate= 932.2kbits/s speed=0.499x elapsed=0:03:09.28    frame= 5700 fps= 30 q=26.0 size=   10752KiB time=00:01:34.96 bitrate= 927.5kbits/s speed= 0.5x elapsed=0:03:09.79    frame= 5731 fps= 30 q=26.0 size=   10752KiB time=00:01:35.48 bitrate= 922.5kbits/s speed=0.502x elapsed=0:03:10.31    frame= 5760 fps= 30 q=26.0 size=   10752KiB time=00:01:35.96 bitrate= 917.8kbits/s speed=0.503x elapsed=0:03:10.83    frame= 5789 fps= 30 q=26.0 size=   10752KiB time=00:01:36.45 bitrate= 913.2kbits/s speed=0.504x elapsed=0:03:11.34    frame= 5818 fps= 30 q=26.0 size=   10752KiB time=00:01:36.93 bitrate= 908.7kbits/s speed=0.505x elapsed=0:03:11.86    frame= 5837 fps= 30 q=26.0 size=   10752KiB time=00:01:37.25 bitrate= 905.7kbits/s speed=0.506x elapsed=0:03:12.37    frame= 5850 fps= 30 q=26.0 size=   10752KiB time=00:01:37.46 bitrate= 903.7kbits/s speed=0.505x elapsed=0:03:12.89    frame= 5863 fps= 30 q=26.0 size=   10752KiB time=00:01:37.68 bitrate= 901.7kbits/s speed=0.505x elapsed=0:03:13.40    frame= 5875 fps= 30 q=26.0 size=   10752KiB time=00:01:37.88 bitrate= 899.9kbits/s speed=0.505x elapsed=0:03:13.91    frame= 5889 fps= 30 q=26.0 size=   10752KiB time=00:01:38.11 bitrate= 897.7kbits/s speed=0.505x elapsed=0:03:14.44    frame= 5902 fps= 30 q=26.0 size=   11008KiB time=00:01:38.33 bitrate= 917.1kbits/s speed=0.504x elapsed=0:03:14.96    frame= 5914 fps= 30 q=26.0 size=   11008KiB time=00:01:38.53 bitrate= 915.2kbits/s speed=0.504x elapsed=0:03:15.49    frame= 5927 fps= 30 q=26.0 size=   11008KiB time=00:01:38.75 bitrate= 913.2kbits/s speed=0.504x elapsed=0:03:16.02    frame= 5940 fps= 30 q=26.0 size=   11008KiB time=00:01:38.96 bitrate= 911.2kbits/s speed=0.504x elapsed=0:03:16.53    frame= 5996 fps= 30 q=-1.0 size=   11264KiB time=00:01:39.90 bitrate= 923.7kbits/s speed=0.507x elapsed=0:03:17.04    [mp4 @ 0000020ebc19e540] Starting second pass: moving the moov atom to the beginning of the file
[out#0/mp4 @ 0000020ebc188d80] video:11374KiB audio:0KiB subtitle:0KiB other streams:0KiB global headers:0KiB muxing overhead: 0.601704%
frame= 6000 fps= 30 q=-1.0 Lsize=   11442KiB time=00:01:39.96 bitrate= 937.7kbits/s speed=0.507x elapsed=0:03:17.07    
[libx264 @ 0000020ebc19f540] frame I:24    Avg QP: 7.43  size:164225
[libx264 @ 0000020ebc19f540] frame P:1631  Avg QP:16.37  size:  4026
[libx264 @ 0000020ebc19f540] frame B:4345  Avg QP:15.50  size:   262
[libx264 @ 0000020ebc19f540] consecutive B-frames:  1.2%  0.7% 18.1% 80.1%
[libx264 @ 0000020ebc19f540] mb I  I16..4: 37.3% 44.7% 18.0%
[libx264 @ 0000020ebc19f540] mb P  I16..4:  0.3%  0.4%  0.1%  P16..4:  4.4%  0.1%  0.4%  0.0%  0.0%    skip:94.3%
[libx264 @ 0000020ebc19f540] mb B  I16..4:  0.2%  0.0%  0.0%  B16..8:  0.1%  0.0%  0.0%  direct: 1.6%  skip:98.1%  L0:53.6% L1:40.6% BI: 5.8%
[libx264 @ 0000020ebc19f540] 8x8 transform intra:39.2% inter:39.4%
[libx264 @ 0000020ebc19f540] coded y,uvDC,uvAC intra: 18.2% 17.3% 12.4% inter: 0.7% 2.0% 0.3%
[libx264 @ 0000020ebc19f540] i16 v,h,dc,p: 90%  6%  3%  1%
[libx264 @ 0000020ebc19f540] i8 v,h,dc,ddl,ddr,vr,hd,vl,hu: 55% 11% 23%  2%  2%  2%  2%  2%  2%
[libx264 @ 0000020ebc19f540] i4 v,h,dc,ddl,ddr,vr,hd,vl,hu: 36% 20% 12%  5%  7%  5%  6%  4%  5%
[libx264 @ 0000020ebc19f540] i8c dc,h,v,p: 88%  6%  5%  1%
[libx264 @ 0000020ebc19f540] Weighted P-Frames: Y:4.5% UV:4.1%
[libx264 @ 0000020ebc19f540] ref P L0: 92.7%  7.3%
[libx264 @ 0000020ebc19f540] ref B L0: 91.1%  8.9%
[libx264 @ 0000020ebc19f540] ref B L1: 96.7%  3.3%
[libx264 @ 0000020ebc19f540] kb/s:931.70
